<svg viewBox="0 0 500 350" xmlns="http://www.w3.org/2000/svg"
     font-family="'EB Garamond',Georgia,serif">
<rect width="500" height="350" fill="white"/>
<line x1="190" y1="45" x2="100" y2="60" stroke="#ccc" stroke-width="5.0"/>
<text x="140" y="38" text-anchor="middle" font-size="11" fill="#bbb" font-style="italic">0.6</text>
<line x1="310" y1="45" x2="400" y2="60" stroke="#ccc" stroke-width="2.5"/>
<text x="360" y="38" text-anchor="middle" font-size="11" fill="#bbb" font-style="italic">0.4</text>
<line x1="390" y1="175" x2="430" y2="92" stroke="#ccc" stroke-width="2.0"/>
<text x="422" y="140" text-anchor="middle" font-size="11" fill="#bbb" font-style="italic">0.5</text>
<line x1="355" y1="218" x2="280" y2="283" stroke="#ccc" stroke-width="2.0"/>
<text x="330" y="260" text-anchor="middle" font-size="11" fill="#bbb" font-style="italic">0.5</text>
<line x1="110" y1="175" x2="70" y2="92" stroke="#ccc" stroke-width="2.1"/>
<text x="72" y="140" text-anchor="middle" font-size="11" fill="#bbb" font-style="italic">0.5</text>
<line x1="145" y1="218" x2="220" y2="283" stroke="#ccc" stroke-width="1.6"/>
<text x="168" y="260" text-anchor="middle" font-size="11" fill="#bbb" font-style="italic">0.5</text>
<circle cx="65" cy="65" r="36" fill="#b52234" stroke="#555" stroke-width="2"/>
<text x="65" y="57" text-anchor="middle" font-size="20" font-style="italic" fill="#fff" font-weight="500">A</text>
<text x="65" y="79" text-anchor="middle" font-size="13" fill="#fff" font-weight="600">9.2</text>
<circle cx="435" cy="65" r="36" fill="#f5f5f5" stroke="#555" stroke-width="2"/>
<text x="435" y="57" text-anchor="middle" font-size="20" font-style="italic" fill="#222" font-weight="500">B</text>
<text x="435" y="79" text-anchor="middle" font-size="13" fill="#222" font-weight="600">4.4</text>
<circle cx="250" cy="308" r="36" fill="#f5f5f5" stroke="#555" stroke-width="2"/>
<text x="250" y="300" text-anchor="middle" font-size="20" font-style="italic" fill="#222" font-weight="500">C</text>
<text x="250" y="322" text-anchor="middle" font-size="13" fill="#222" font-weight="600">3.0</text>
<rect x="190" y="18" width="120" height="52" rx="6" fill="#e08214" stroke="#888" stroke-width="1.5"/>
<text x="250" y="40" text-anchor="middle" font-size="14" fill="#fff" font-weight="600">h&#x2081;</text>
<text x="250" y="56" text-anchor="middle" font-size="11" fill="#fff" font-style="italic">&#x3b8;B = 11.4</text>
<rect x="330" y="172" width="120" height="52" rx="6" fill="#f5f5f5" stroke="#888" stroke-width="1.5"/>
<text x="390" y="194" text-anchor="middle" font-size="14" fill="#222" font-weight="600">h&#x2082;</text>
<text x="390" y="210" text-anchor="middle" font-size="11" fill="#222" font-style="italic">&#x3b8;B = 4.0</text>
<rect x="50" y="172" width="120" height="52" rx="6" fill="#e39539" stroke="#888" stroke-width="1.5"/>
<text x="110" y="194" text-anchor="middle" font-size="14" fill="#fff" font-weight="600">h&#x2083;</text>
<text x="110" y="210" text-anchor="middle" font-size="11" fill="#fff" font-style="italic">&#x3b8;B = 3.5</text>
</svg>